<?xml version="1.0" encoding="UTF-8" standalone="no"?>
<!-- Created with Inkscape (http://www.inkscape.org/) -->

<svg
   xmlns:dc="http://purl.org/dc/elements/1.1/"
   xmlns:cc="http://creativecommons.org/ns#"
   xmlns:rdf="http://www.w3.org/1999/02/22-rdf-syntax-ns#"
   xmlns:svg="http://www.w3.org/2000/svg"
   xmlns="http://www.w3.org/2000/svg"
   xmlns:xlink="http://www.w3.org/1999/xlink"
   xmlns:sodipodi="http://sodipodi.sourceforge.net/DTD/sodipodi-0.dtd"
   xmlns:inkscape="http://www.inkscape.org/namespaces/inkscape"
   width="744.09448819"
   height="1052.3622047"
   id="svg2"
   version="1.1"
   inkscape:version="0.48.4 r9939"
   sodipodi:docname="1.svg"
   inkscape:export-filename="/home/novica/projects/understand-or-to-draw/vecna.png"
   inkscape:export-xdpi="90"
   inkscape:export-ydpi="90">
  <defs
     id="defs4">
    <linearGradient
       inkscape:collect="always"
       id="linearGradient4330">
      <stop
         style="stop-color:#b91e27;stop-opacity:1;"
         offset="0"
         id="stop4332" />
      <stop
         style="stop-color:#b91e27;stop-opacity:0;"
         offset="1"
         id="stop4334" />
    </linearGradient>
    <marker
       inkscape:stockid="Arrow2Lend"
       orient="auto"
       refY="0.0"
       refX="0.0"
       id="Arrow2Lend"
       style="overflow:visible;">
      <path
         id="path5998"
         style="fill-rule:evenodd;stroke-width:0.62500000;stroke-linejoin:round;"
         d="M 8.7185878,4.0337352 L -2.2072895,0.016013256 L 8.7185884,-4.0017078 C 6.9730900,-1.6296469 6.9831476,1.6157441 8.7185878,4.0337352 z "
         transform="scale(1.1) rotate(180) translate(1,0)" />
    </marker>
    <pattern
       inkscape:collect="always"
       xlink:href="#Wavy"
       id="pattern5962"
       patternTransform="matrix(0.33548438,0,0,0.33548438,407.64907,901.91771)" />
    <pattern
       inkscape:stockid="Wavy"
       id="Wavy"
       height="5.1805778"
       width="30.066020"
       patternUnits="userSpaceOnUse"
       inkscape:collect="always">
      <path
         id="path5841"
         d="M 7.597,0.061 C 5.079,-0.187 2.656,0.302 -0.01,1.788 L -0.01,3.061 C 2.773,1.431 5.173,1.052 7.472,1.280 C 9.770,1.508 11.969,2.361 14.253,3.218 C 18.820,4.931 23.804,6.676 30.066,3.061 L 30.062,1.788 C 23.622,5.497 19.246,3.770 14.691,2.061 C 12.413,1.207 10.115,0.311 7.597,0.061 z "
         style="fill:black;stroke:none;" />
    </pattern>
    <linearGradient
       inkscape:collect="always"
       xlink:href="#linearGradient4330"
       id="linearGradient4336"
       x1="574"
       y1="873.26218"
       x2="662"
       y2="873.26218"
       gradientUnits="userSpaceOnUse" />
  </defs>
  <sodipodi:namedview
     id="base"
     pagecolor="#ffffff"
     bordercolor="#666666"
     borderopacity="1.0"
     inkscape:pageopacity="0.0"
     inkscape:pageshadow="2"
     inkscape:zoom="0.35355339"
     inkscape:cx="206.58221"
     inkscape:cy="595.68957"
     inkscape:document-units="px"
     inkscape:current-layer="layer1"
     showgrid="false"
     inkscape:window-width="1024"
     inkscape:window-height="692"
     inkscape:window-x="-2"
     inkscape:window-y="19"
     inkscape:window-maximized="1"
     showguides="true"
     inkscape:guide-bbox="true" />
  <metadata
     id="metadata7">
    <rdf:RDF>
      <cc:Work
         rdf:about="">
        <dc:format>image/svg+xml</dc:format>
        <dc:type
           rdf:resource="http://purl.org/dc/dcmitype/StillImage" />
        <dc:title />
      </cc:Work>
    </rdf:RDF>
  </metadata>
  <g
     inkscape:label="Layer 1"
     inkscape:groupmode="layer"
     id="layer1">
    <text
       xml:space="preserve"
       style="font-size:32px;font-style:normal;font-weight:normal;line-height:125%;letter-spacing:0px;word-spacing:0px;fill:#000000;fill-opacity:1;stroke:none;font-family:Sans"
       x="188.06656"
       y="902.09833"
       id="text3901"
       sodipodi:linespacing="125%"><tspan
         sodipodi:role="line"
         id="tspan3903"
         x="188.06656"
         y="902.09833" /></text>
    <text
       xml:space="preserve"
       style="font-size:40px;font-style:normal;font-weight:normal;line-height:125%;letter-spacing:0px;word-spacing:0px;fill:#000000;fill-opacity:1;stroke:none;font-family:Sans"
       x="80.285713"
       y="903.50507"
       id="text6417"
       sodipodi:linespacing="125%"><tspan
         sodipodi:role="line"
         id="tspan6419"
         x="80.285713"
         y="903.50507"
         style="font-size:36px;font-style:italic;font-variant:normal;font-weight:normal;font-stretch:normal;font-family:Linux Libertine Display;-inkscape-font-specification:Linux Libertine Display Italic">Internet</tspan></text>
    <path
       sodipodi:type="arc"
       style="opacity:0.55000000000000004;fill:#c0f800;fill-opacity:1;stroke:#000000;stroke-width:0;stroke-linejoin:round;stroke-miterlimit:4;stroke-opacity:1;stroke-dasharray:none;stroke-dashoffset:0"
       id="path3435"
       sodipodi:cx="115"
       sodipodi:cy="584.50507"
       sodipodi:rx="340.71429"
       sodipodi:ry="89.285713"
       d="m 455.71429,584.50507 a 340.71429,89.285713 0 1 1 -681.42858,0 340.71429,89.285713 0 1 1 681.42858,0 z"
       transform="matrix(0,0.81838282,-0.81838282,0,837.56032,492.01955)" />
    <path
       transform="matrix(-0.77832832,0.2528942,-0.2528942,-0.77832832,596.53711,1011.9876)"
       d="m 455.71429,584.50507 a 340.71429,89.285713 0 1 1 -681.42858,0 340.71429,89.285713 0 1 1 681.42858,0 z"
       sodipodi:ry="89.285713"
       sodipodi:rx="340.71429"
       sodipodi:cy="584.50507"
       sodipodi:cx="115"
       id="path3437"
       style="opacity:0.55000000000000004;fill:#c932b2;fill-opacity:1;stroke:#000000;stroke-width:0;stroke-linejoin:round;stroke-miterlimit:4;stroke-opacity:1;stroke-dasharray:none;stroke-dashoffset:0"
       sodipodi:type="arc" />
    <path
       sodipodi:type="arc"
       style="opacity:0.55000000000000004;fill:#2beabf;fill-opacity:1;stroke:#000000;stroke-width:0;stroke-linejoin:round;stroke-miterlimit:4;stroke-opacity:1;stroke-dasharray:none;stroke-dashoffset:0"
       id="path3439"
       sodipodi:cx="115"
       sodipodi:cy="584.50507"
       sodipodi:rx="340.71429"
       sodipodi:ry="89.285713"
       d="m 455.71429,584.50507 a 340.71429,89.285713 0 1 1 -681.42858,0 340.71429,89.285713 0 1 1 681.42858,0 z"
       transform="matrix(-0.48103335,-0.66208561,0.66208561,-0.48103335,27.537863,943.43985)" />
    <path
       transform="matrix(0.48103335,-0.66208561,0.66208561,0.48103335,-83.099809,381.10699)"
       d="m 455.71429,584.50507 a 340.71429,89.285713 0 1 1 -681.42858,0 340.71429,89.285713 0 1 1 681.42858,0 z"
       sodipodi:ry="89.285713"
       sodipodi:rx="340.71429"
       sodipodi:cy="584.50507"
       sodipodi:cx="115"
       id="path3441"
       style="opacity:0.55000000000000004;fill:#e72424;fill-opacity:1;stroke:#000000;stroke-width:0;stroke-linejoin:round;stroke-miterlimit:4;stroke-opacity:1;stroke-dasharray:none;stroke-dashoffset:0"
       sodipodi:type="arc" />
    <path
       sodipodi:type="arc"
       style="opacity:0.55000000000000004;fill:#3e3acf;fill-opacity:1;stroke:#000000;stroke-width:0;stroke-linejoin:round;stroke-miterlimit:4;stroke-opacity:1;stroke-dasharray:none;stroke-dashoffset:0"
       id="path3443"
       sodipodi:cx="115"
       sodipodi:cy="584.50507"
       sodipodi:rx="340.71429"
       sodipodi:ry="89.285713"
       d="m 455.71429,584.50507 a 340.71429,89.285713 0 1 1 -681.42858,0 340.71429,89.285713 0 1 1 681.42858,0 z"
       transform="matrix(0.77832832,0.2528942,-0.2528942,0.77832832,417.5216,102.1139)" />
    <path
       inkscape:connector-curvature="0"
       style="fill:#b91e27;fill-opacity:1;stroke:#b91e27;stroke-width:0;stroke-linejoin:bevel;stroke-miterlimit:4;stroke-opacity:1;stroke-dasharray:none;stroke-dashoffset:0"
       d="m 359.21141,509.57776 c -7.47445,2.24785 -14.99962,4.59481 -22.58225,7.05855 -7.5845,2.46436 -15.05882,4.99456 -22.4288,7.57004 -4.72092,6.20593 -9.40992,12.53258 -14.09153,18.97625 -4.68503,6.44839 -9.26151,12.89647 -13.70791,19.30872 -0.17171,7.79891 -0.25575,15.66252 -0.25575,23.63081 0,7.96828 0.084,15.85747 0.25575,23.65638 4.4464,6.41225 9.02288,12.86033 13.70791,19.30872 4.68161,6.44367 9.37061,12.77032 14.09153,18.97625 7.36998,2.57548 14.8443,5.10568 22.4288,7.57004 7.58263,2.46374 15.1078,4.8107 22.58225,7.05855 7.47446,-2.24785 14.99963,-4.59481 22.58226,-7.05855 7.5845,-2.46436 15.05882,-4.99456 22.4288,-7.57004 4.72092,-6.20593 9.40992,-12.53258 14.09153,-18.97625 4.68503,-6.44839 9.26151,-12.89647 13.70791,-19.30872 0.17171,-7.79891 0.25575,-15.6881 0.25575,-23.65638 0,-7.96829 -0.084,-15.8319 -0.25575,-23.63081 -4.4464,-6.41225 -9.02288,-12.86033 -13.70791,-19.30872 -4.68161,-6.44367 -9.37061,-12.77032 -14.09153,-18.97625 -7.36998,-2.57548 -14.8443,-5.10568 -22.4288,-7.57004 -7.58263,-2.46374 -15.1078,-4.8107 -22.58226,-7.05855 z"
       id="path4219" />
    <path
       id="path4230"
       d="m 359.21141,280.69175 c -30.652,8.96834 -61.51199,18.33209 -92.6076,28.16179 -31.1033,9.83213 -61.75477,19.92698 -91.97834,30.20249 -19.36004,24.76004 -38.58916,50.00172 -57.78798,75.71032 -19.212847,25.72737 -37.980542,51.45356 -56.214815,77.03677 -0.704145,31.1156 -1.048782,62.4894 -1.048782,94.28078 0,31.79137 0.344637,63.26721 1.048782,94.38279 18.234273,25.58322 37.001968,51.30941 56.214815,77.03683 19.19882,25.7086 38.42794,50.95022 57.78798,75.71031 30.22357,10.27545 60.87504,20.37029 91.97834,30.2025 31.09561,9.82968 61.9556,19.19337 92.6076,28.16178 30.65201,-8.96841 61.512,-18.3321 92.60761,-28.16178 31.1033,-9.83221 61.75477,-19.92705 91.97834,-30.2025 19.36004,-24.76009 38.58916,-50.00171 57.78798,-75.71031 19.21285,-25.72742 37.98054,-51.45361 56.21481,-77.03683 0.70414,-31.11558 1.04878,-62.59142 1.04878,-94.38279 0,-31.79138 -0.34464,-63.16518 -1.04878,-94.28078 -18.23427,-25.58321 -37.00196,-51.3094 -56.21481,-77.03677 -19.19882,-25.7086 -38.42794,-50.95028 -57.78798,-75.71032 -30.22357,-10.27551 -60.87504,-20.37036 -91.97834,-30.20249 -31.09561,-9.8297 -61.9556,-19.19345 -92.60761,-28.16179 z"
       style="fill:none;stroke:#b91e27;stroke-width:2;stroke-linejoin:round;stroke-miterlimit:4;stroke-opacity:1;stroke-dasharray:none;stroke-dashoffset:0"
       inkscape:connector-curvature="0" />
    <path
       style="fill:none;stroke:#000000;stroke-width:1.93088961;stroke-linecap:butt;stroke-linejoin:miter;stroke-miterlimit:4;stroke-opacity:1;stroke-dasharray:none;marker-end:url(#Arrow2Lend)"
       d="M 357.75957,592.59325 137.08647,868.43461"
       id="path5971"
       inkscape:connector-curvature="0" />
    <text
       xml:space="preserve"
       style="font-size:32px;font-style:normal;font-weight:normal;line-height:125%;letter-spacing:0px;word-spacing:0px;fill:#000000;fill-opacity:1;stroke:none;font-family:Sans"
       x="151.9034"
       y="110.68132"
       id="text3879"
       sodipodi:linespacing="125%"><tspan
         sodipodi:role="line"
         x="151.9034"
         y="110.68132"
         style="font-size:24px;text-align:start;line-height:200%;text-anchor:start"
         id="tspan3694">The Internet is an integral part of modern life—</tspan><tspan
         sodipodi:role="line"
         x="151.9034"
         y="158.68132"
         style="font-size:24px;text-align:start;line-height:200%;text-anchor:start"
         id="tspan4241">a key component in education, communication, </tspan><tspan
         sodipodi:role="line"
         x="151.9034"
         y="206.68132"
         style="font-size:24px;text-align:start;line-height:200%;text-anchor:start"
         id="tspan4243">collaboration, business, entertainment and</tspan><tspan
         sodipodi:role="line"
         x="151.9034"
         y="254.68132"
         style="font-size:24px;text-align:start;line-height:200%;text-anchor:start"
         id="tspan4245">society as a whole. </tspan></text>
    <text
       xml:space="preserve"
       style="font-size:32px;font-style:normal;font-weight:normal;line-height:125%;letter-spacing:0px;word-spacing:0px;fill:#000000;fill-opacity:1;stroke:none;font-family:Sans"
       x="-63.928787"
       y="647.49347"
       id="text3897"
       sodipodi:linespacing="125%"
       transform="matrix(0.67018202,-0.74219678,0.74219678,0.67018202,0,0)"><tspan
         sodipodi:role="line"
         x="-63.928787"
         y="647.49347"
         id="tspan3212"
         style="font-size:18px;font-weight:bold;-inkscape-font-specification:Sans Bold">Education</tspan></text>
    <text
       sodipodi:linespacing="125%"
       id="text4291"
       y="684.784"
       x="250.8947"
       style="font-size:32px;font-style:normal;font-weight:normal;line-height:125%;letter-spacing:0px;word-spacing:0px;fill:#000000;fill-opacity:1;stroke:none;font-family:Sans"
       xml:space="preserve"
       transform="matrix(0.94025714,-0.34046515,0.34046515,0.94025714,0,0)"><tspan
         style="font-size:18px;font-weight:bold;-inkscape-font-specification:Sans Bold"
         id="tspan4293"
         y="684.784"
         x="250.8947"
         sodipodi:role="line">Communication</tspan></text>
    <text
       transform="matrix(0.92820327,0.37207349,-0.37207349,0.92820327,0,0)"
       xml:space="preserve"
       style="font-size:32px;font-style:normal;font-weight:normal;line-height:125%;letter-spacing:0px;word-spacing:0px;fill:#000000;fill-opacity:1;stroke:none;font-family:Sans"
       x="674.8866"
       y="408.63754"
       id="text4295"
       sodipodi:linespacing="125%"><tspan
         sodipodi:role="line"
         x="674.8866"
         y="408.63754"
         id="tspan4297"
         style="font-size:18px;font-weight:bold;-inkscape-font-specification:Sans Bold">Collaboration</tspan></text>
    <text
       sodipodi:linespacing="125%"
       id="text4299"
       y="215.67691"
       x="789.87561"
       style="font-size:32px;font-style:normal;font-weight:normal;line-height:125%;letter-spacing:0px;word-spacing:0px;fill:#000000;fill-opacity:1;stroke:none;font-family:Sans"
       xml:space="preserve"
       transform="matrix(0.73012806,0.68331034,-0.68331034,0.73012806,0,0)"><tspan
         style="font-size:18px;font-weight:bold;-inkscape-font-specification:Sans Bold"
         id="tspan4301"
         y="215.67691"
         x="789.87561"
         sodipodi:role="line">Business</tspan></text>
    <text
       xml:space="preserve"
       style="font-size:18px;font-style:normal;font-weight:normal;line-height:125%;letter-spacing:0px;word-spacing:0px;fill:#000000;fill-opacity:1;stroke:none;font-family:Sans"
       x="715.92322"
       y="-349.01807"
       id="text4303"
       sodipodi:linespacing="125%"
       transform="matrix(0,1,-1,0,0,0)"><tspan
         sodipodi:role="line"
         id="tspan4305"
         x="715.92322"
         y="-349.01807"
         style="font-weight:bold;-inkscape-font-specification:Sans Bold">Entertaiment</tspan></text>
    <text
       xml:space="preserve"
       style="font-size:18px;font-style:normal;font-weight:normal;line-height:125%;letter-spacing:0px;word-spacing:0px;fill:#000000;fill-opacity:1;stroke:none;font-family:Sans"
       x="66"
       y="592.36218"
       id="text4307"
       sodipodi:linespacing="125%"><tspan
         sodipodi:role="line"
         id="tspan4309"
         x="66"
         y="592.36218"
         style="font-weight:bold;-inkscape-font-specification:Sans Bold">Society</tspan></text>
    <text
       xml:space="preserve"
       style="font-size:18px;font-style:normal;font-weight:normal;line-height:125%;letter-spacing:0px;word-spacing:0px;fill:#b9271e;fill-opacity:1;stroke:none;font-family:Sans"
       x="-3.2001433"
       y="205.39754"
       id="text4338"
       sodipodi:linespacing="125%"><tspan
         sodipodi:role="line"
         id="tspan4340"
         x="-3.2001433"
         y="205.39754"
         style="font-size:144px;font-style:normal;font-variant:normal;font-weight:bold;font-stretch:normal;fill:#b9271e;fill-opacity:1;font-family:Linux Biolinum Keyboard O;-inkscape-font-specification:Linux Biolinum Keyboard O Bold">1</tspan></text>
  </g>
</svg>
